<svg width="126" height="104" viewBox="0 0 126 104" fill="none" xmlns="http://www.w3.org/2000/svg">
<path d="M71.0229 76.1561C68.7981 77.5206 65.9489 78.2722 63.0001 78.2722C60.0512 78.2722 57.202 77.5209 54.9772 76.1561L18.6549 53.8794C18.6549 53.8794 15.3765 51.8698 15.3765 56.4222C15.3765 61.5918 15.3765 77.1004 15.3765 77.1004C15.3765 77.3072 15.3765 78.3452 15.3765 78.667C15.3765 90.3853 36.6979 103.018 62.9991 103.018C89.3003 103.018 110.622 90.3856 110.622 78.667C110.622 78.3452 110.622 77.3072 110.622 77.1004C110.622 77.1004 110.622 60.6512 110.622 55.168C110.622 51.5139 108.291 53.2995 108.291 53.2995L71.0229 76.1561Z" fill="white"/>
<path d="M123.407 36.1598C126.198 34.4482 126.198 31.6472 123.407 29.9353L68.0743 2.26563C65.2834 0.554035 60.7163 0.554035 57.9254 2.26563L2.5932 29.9353C-0.197734 31.6469 -0.197734 34.4479 2.5932 36.1598L57.9254 70.0956C60.7163 71.8072 65.2834 71.8072 68.0743 70.0956" fill="white"/>
<path d="M121.118 86.4604C121.118 77.0906 121.118 48.9811 121.118 48.9811C121.118 48.9811 121.144 47.2059 120.091 47.7921C119.246 48.2623 117.175 49.4169 116.445 50.0516C115.603 50.7838 115.792 52.4274 115.792 52.4274C115.792 52.4274 115.792 77.9522 115.792 86.4604C115.792 86.9435 115.377 87.1741 115.179 87.2906C113.267 88.4151 111.98 90.4907 111.98 92.8703C111.98 96.4464 114.879 99.3454 118.456 99.3454C122.032 99.3454 124.93 96.4464 124.93 92.8703C124.93 90.4817 123.635 88.3994 121.71 87.2778C121.518 87.1663 121.118 86.9432 121.118 86.4604Z" fill="white"/>
</svg>
